<?xml version="1.0" encoding="UTF-8" standalone="no"?>
<!-- Created with Inkscape (http://www.inkscape.org/) -->

<svg
   width="793.70099"
   height="704.18201"
   viewBox="0 0 210.00005 186.31482"
   version="1.1"
   id="svg1"
   sodipodi:docname="cic-base.svg"
   inkscape:version="1.4.4 (dcaf3e7d9e, 2026-05-05)"
   xmlns:inkscape="http://www.inkscape.org/namespaces/inkscape"
   xmlns:sodipodi="http://sodipodi.sourceforge.net/DTD/sodipodi-0.dtd"
   xmlns="http://www.w3.org/2000/svg"
   xmlns:svg="http://www.w3.org/2000/svg">
  <sodipodi:namedview
     id="namedview1"
     pagecolor="#505050"
     bordercolor="#eeeeee"
     borderopacity="1"
     inkscape:showpageshadow="0"
     inkscape:pageopacity="0"
     inkscape:pagecheckerboard="0"
     inkscape:deskcolor="#505050"
     inkscape:current-layer="svg1" />
  <defs
     id="defs1" />
  <path
     id="path60"
     style="display:inline;fill:#ffffff;stroke:none;stroke-width:0.44318"
     d="m 70.6,79.05 c 0,0 -5.59,0.59 -5.59,0.59 1.85,0 3.86,0.2 5.59,-0.59 z m -6.18,0.59 c 0,0 -1.77,0.3 -1.77,0.3 z m 23.62,2.96 c 0,0 -2.08,0.29 -2.08,0.29 0,0 2.08,0.3 2.08,0.3 z m -39.29,4.43 c 0,0 -4.13,0.29 -4.13,0.29 0,0 0,1.78 0,1.78 1.89,-0.16 3.42,-0.1 4.13,-2.07 z m -12.12,0.88 c 0,0 -0.28,0 -0.28,0 0,0 0.28,0.3 0.28,0.3 z m 0.9,0.89 c 0,0 -1.18,0.59 -1.18,0.59 z m 14.17,13.9 c 0,0 -0.9,1.2 -0.9,1.2 0,0 1.18,-0.3 1.18,-0.3 z m -26.89,0.9 c 0,0 -0.27,0 -0.27,0 0,0 0.27,0.3 0.27,0.3 z m 31.34,3.2 c 0,0 -0.9,1.5 -0.9,1.5 z m -12.12,3 c 0,0 -2.96,1.8 -2.96,1.8 1.78,0.6 2.29,-0.2 2.96,-1.8 z m 97.17,5.9 c 0,0 -0.3,0 -0.3,0 0,0 0.3,0.3 0.3,0.3 z m -21.5,2.6 c 0,0 0.8,1.2 0.8,1.2 z m -44.65,35.5 c 0,0 -1.18,-11.2 -1.18,-11.2 -0.1,-1 -0.51,-6.1 -0.83,-6.7 -0.43,-0.9 -1.61,-0.7 -2.44,-0.7 0,0 -5.59,0.3 -5.59,0.3 0,0 -5.63,0 -5.63,0 0,0 -0.27,7.4 -0.27,7.4 0,0 -0.32,4.7 -0.32,4.7 0,0 0,6.5 0,6.5 0,0 4.13,0 4.13,0 0,0 3.86,0.3 3.86,0.3 z M 42.53,142.6 c 0,0 -1.22,3.4 -1.22,3.4 0,0 -4.37,2.2 -4.37,2.2 0,0 -2.09,2.7 -2.09,2.7 0,0 6.81,1.4 6.81,1.4 0.2,-2.7 1.78,-7.4 0.87,-9.7 z m -13.86,7.3 c 0,0 -0.31,0 -0.31,0 0,0 0.31,0.4 0.31,0.4 z m 103.43,24 c -1.5,0.3 -3,1 -4.2,1.9 -1,0.7 -1.9,1.6 -3.2,1.6 -1,0 -4.5,-1.6 -5.3,-2.2 -1.3,-0.9 -1,-1.3 -2.7,-1.6 0,0 2.1,11.5 2.1,11.5 0,0 9.7,-4.1 9.7,-4.1 0.9,-0.3 3.4,-1.4 3.8,-2.2 0.6,-0.9 -0.1,-3.8 -0.2,-4.9 z m 0.9,6.5 c 0,0 -7.1,2.9 -7.1,2.9 0,0 -5.4,2.4 -5.4,2.4 0,0 9.2,-0.8 9.2,-0.8 0,0 3.3,-0.9 3.3,-0.9 z M 3.554,116 C 7.727,106.2 18.44,95.91 27.18,90.08 c 9.13,-6.09 21.3,-11.01 32.2,-12.47 2.72,-0.36 2.36,0.38 3.54,0.27 0.83,-0.1 1.54,-0.76 2.96,-1.05 0,0 7.99,-0.44 7.99,-0.44 16.02,0 32.43,4.86 45.43,14.19 0,0 3.6,2.91 3.6,2.91 0,0 2.7,1.87 2.7,1.87 3.9,3.27 10.1,9.94 13.1,14.14 3.6,5 6.9,11.7 9.2,17.4 0,0 1.5,5.1 1.5,5.1 1.9,6 2.5,7.7 3.4,14.1 0.6,3.6 1.4,6.7 1.4,10.3 0,0 0,5.9 0,5.9 0,0 -0.5,5.4 -0.5,5.4 0,0 -0.6,5 -0.6,5 -0.3,1.5 -0.8,6.2 -1.6,7.2 -0.5,0.8 -2.6,1.1 -3.5,1.4 0,0 -7.1,2.3 -7.1,2.3 -1.6,0.4 -2.6,0.9 -4.1,0 1.3,-0.1 5.8,-1 6.6,-1.9 0.4,-0.4 0.4,-0.8 0.4,-1.3 -0.2,-2 -2.1,-3.3 -2.9,-5 0,0 -4.7,2.7 -4.7,2.7 0,0 -2.1,2 -2.1,2 0,0 0,4.1 0,4.1 0,0 2.1,0 2.1,0 0,0 -9.1,1.8 -9.1,1.8 0,0 -13.1,0.3 -13.1,0.3 0,0 -4.4,-0.3 -4.4,-0.3 0,0 -7.4,-0.3 -7.4,-0.3 -1.6,0 -5.46,-0.7 -6.76,-1.5 0,0 3.23,0.3 3.23,0.3 0,0 -1.34,-8.3 -1.34,-8.3 -0.11,-0.9 -0.15,-2.7 -0.9,-3.3 -0.71,-0.6 -3.03,0 -3.94,0.2 0,0 -9.17,1.1 -9.17,1.1 -0.91,0 -3.66,0.2 -4.37,0.7 -0.79,0.9 -0.1,4.2 0,5.5 0,0 7.01,2.1 7.01,2.1 -1.89,-0.2 -2.96,-0.7 -4.73,-1.1 0,0 -4.72,-0.9 -4.72,-0.9 0,0 -8.27,-3.2 -8.27,-3.2 0,0 -9.73,-4.4 -9.73,-4.4 0,0 -2.12,-1.7 -2.12,-1.7 0,0 -5.59,-2.7 -5.59,-2.7 -3.98,-2.4 -7.84,-5 -11.5,-7.9 -3.58,-2.7 -7.16,-5.7 -10.27,-8.9 0,0 -3.03,-3.5 -3.03,-3.5 0,0 -8.86,-9.5 -8.86,-9.5 C 11.19,132 7.649,127.2 3.554,119.2 2.247,116.7 0.448,114.4 -8.61e-4,111.6 Z M 60.56,80.23 c -1.34,0 -1.89,0 -2.95,0.89 1.3,-0.1 1.85,-0.11 2.95,-0.89 z m 25.99,4.14 c -1.5,-0.98 -2.96,-1.87 -4.73,-2.29 -2.16,-0.54 -2.83,-0.25 -4.13,-0.52 0,0 -2.95,-0.97 -2.95,-0.97 -5.4,-0.91 -13.63,0.27 -18.59,2.57 -2.56,1.18 -4.76,3.35 -5.82,5.94 -0.56,1.11 -1.03,2.71 0,3.66 0.47,0.4 1.37,0.58 1.96,0.77 0,0 -1.49,0.29 -1.49,0.29 0,0 0,0.59 0,0.59 1.53,0 2.2,0 2.95,1.48 0,0 2.4,-0.29 2.4,-0.29 -0.31,-1.13 -0.31,-1.07 0.28,-2.07 0,0 0.47,2.85 0.47,2.85 0.63,1.24 2.32,0 2.8,-0.78 0,0 -2.09,0.29 -2.09,0.29 2.16,-2.95 4.88,-3.78 8.27,-2.66 -1.66,1.52 -4.45,3.94 -6.77,3.84 0,0 -0.91,1.77 -0.91,1.77 1.85,0.1 5.31,1.15 6.81,0.6 -0.87,-0.28 -2.91,-0.65 -2.32,-2.03 0.31,-0.79 1.26,-0.83 1.89,-1.27 1.42,-1.01 0.98,-2.5 4.84,-2.02 0.59,-1.82 1.89,-1.76 3.54,-1.78 0,0 -0.27,1.19 -0.27,1.19 0,0 3.54,-0.89 3.54,-0.89 0.2,1.32 0.47,3.41 1.5,4.31 1.61,1.36 3.42,0.1 5,-0.66 1.26,-0.6 2.75,-1.39 3.82,-2.31 2,-1.77 3.97,-5.54 1.45,-7.73 -0.55,-0.47 -1.1,-0.7 -1.73,-1 z M 55.56,81.71 c -2.08,-0.37 -3.31,-0.15 -5.04,1.18 1.7,0.48 3.98,0.44 5.04,-1.18 z m 40.75,2.95 C 95.52,83.53 93.95,83.6 92.77,84.07 Z m -3.23,0.59 c 0,0 -4.72,-1.18 -4.72,-1.18 0.9,1.66 3.07,1.83 4.72,1.18 z M 51.39,84.37 c -6.93,0 -5.43,0.95 -10.32,2.07 0,0 1.18,-1.48 1.18,-1.48 -2.36,0.47 -4.09,1 -5.62,2.95 0,0 4.44,-0.98 4.44,-0.98 0,0 6.18,-0.76 6.18,-0.76 1.86,-0.14 3.15,0.1 4.14,-1.8 z m 38.74,2.66 c 0,1.02 1.22,1.01 2.05,1.15 0,0 6.49,1.21 6.49,1.21 -0.59,-1.02 -2.28,-2.25 -3.54,-2.16 -0.71,0 -1.34,0.57 -2.36,0.53 -0.67,0 -1.97,-0.51 -2.64,-0.73 z m -55.55,0.59 c -1.77,0.76 -3.47,1.45 -4.73,2.95 1.7,-0.49 3.82,-1.34 4.73,-2.95 z M 101,91.16 c 0,0 -7.33,-1.71 -7.33,-1.71 -2.2,-0.44 -3.34,-0.98 -4.13,1.42 1.02,0.46 4.57,1.71 5.59,1.71 1.38,0 2.75,-1.05 3.86,-0.81 1.21,0.29 1.21,1.29 1.21,2.35 0,0 3.2,0.29 3.2,0.29 C 102.3,93 101.2,92.75 101,91.16 Z M 47.57,89.69 c -2.91,0.58 -5.16,0.63 -6.5,3.54 0.99,-0.1 5.4,-1.34 6.03,-1.98 0.43,-0.47 0.43,-0.97 0.47,-1.56 z m -16.85,1.77 c -3.11,0.89 -8.58,4.27 -10.95,6.51 -1.26,1.24 -2.28,2.13 -2.95,3.83 0,0 6.22,-3.76 6.22,-3.76 0,0 5.91,-3.33 5.91,-3.33 0,0 -1.46,-1.48 -1.46,-1.48 1.65,-0.31 2.32,-0.24 3.23,-1.77 z m 63.82,5.32 c 0,-0.96 0.16,-2.62 -0.51,-3.34 -0.71,-0.78 -4.1,-1.65 -5.04,-1.09 -0.63,0.37 -0.71,0.85 -0.95,1.47 z M 47.85,93.82 c -0.48,-2.78 -2.64,-0.29 -6.5,0.3 0,0 1.5,2.36 1.5,2.36 2.16,-1.45 2.32,-2.04 5,-2.66 z m 1.18,0.89 c 0,0 -3.55,2.07 -3.55,2.07 1.85,0 5.44,1.38 4.1,-1.18 z m 36.34,1.18 c 0.86,1.6 3.81,3.4 5.35,4.61 0,0 3.82,3.2 3.82,3.2 0.94,0.8 3.66,4 4.92,3.4 0.54,-0.3 0.54,-0.9 0.39,-1.4 0,0 -1.85,-4.5 -1.85,-4.5 -1.3,-2.65 -4.49,-3.98 -7,-5.24 -0.87,-0.43 -2.29,-1.17 -3.27,-1.15 -0.91,0 -1.62,0.58 -2.36,1.08 z m -57.01,0.3 c -2.13,0.78 -7.56,4.41 -9.77,5.81 -1.26,0.8 -3.26,2.1 -4.05,3.3 -0.91,1.7 -0.95,3.9 -0.95,5.7 0,0 8.55,-7.1 8.55,-7.1 3.11,-2.5 6.18,-3.2 6.22,-7.71 z m 69.45,11.51 c 0,0 -3.86,-3.5 -3.86,-3.5 0,0 -5.91,-4.58 -5.91,-4.58 0,0 -4.13,-2.65 -4.13,-2.65 0,0 -2.95,0.99 -2.95,0.99 0,0 7.36,9.14 7.36,9.14 0.63,0.9 2.01,3.4 3.03,3.6 1.42,0.5 5.47,-1.9 6.46,-3 z m 7.69,-5.9 c 0,0 -0.5,-0.8 -0.5,-0.8 0,0 -3.7,-3.46 -3.7,-3.46 0,0 -1.1,-0.47 -1.1,-0.47 0.4,1.37 2.4,4.23 3.8,4.73 0.6,0.2 0.9,0.1 1.5,0 z M 43.71,97.66 c -2.24,0.72 -2.64,3.74 -0.27,2.94 -0.99,-1.15 -0.32,-1.67 0.27,-2.94 z m 10.04,1.18 c 0,0 -1.77,-1.18 -1.77,-1.18 -0.75,1.65 -1.26,2.21 -2.95,2.94 0,0 0.31,-1.16 0.31,-1.16 -1.49,0.66 -1.34,1.06 -2.4,1.86 -1.06,0.8 -1.54,0.3 -2.05,1.7 0,0 1.77,1.5 1.77,1.5 2.52,-0.9 1.07,-1.4 3.86,-3.9 0,0 0.28,1.2 0.28,1.2 0.83,-0.7 1.1,-0.8 0.59,-1.8 z m 28.98,7.66 c 1.02,0.3 3.5,0.2 2.91,-1.5 -0.2,-0.5 -1.18,-1.5 -1.57,-2 -1.22,-1.5 -2.76,-3.89 -4.61,-4.45 0,0 -0.59,2.35 -0.59,2.35 0,0 1.77,1.8 1.77,1.8 0,0 -2.64,-0.3 -2.64,-0.3 0,0 0.59,1.2 0.59,1.2 0,0 2.05,-0.3 2.05,-0.3 -0.39,0.7 -1.18,1.9 -1.34,2.6 -0.23,1.4 1.1,3.7 1.66,5.1 0.35,0.9 0.78,2.4 1.81,2.7 0.59,0.1 1.69,-0.2 2.32,-0.3 0,0 5.31,-1.6 5.31,-1.6 0,0 -2.36,-3.5 -2.36,-3.5 0,0 -2.67,1 -2.67,1 0,0 -2.96,-1.3 -2.96,-1.3 z M 58.2,99.73 c -2.24,-0.11 -2.91,-0.93 -3.86,0.57 0,0 3.58,0.6 3.58,0.6 z m 6.22,0.57 c 0,0 -3.86,-0.2 -3.86,-0.2 -0.67,0 -1.18,0.3 -1.61,0.9 -1.14,1.4 0.47,2.4 1.02,3.7 0.75,1.7 0.12,2.6 2.09,3.6 z m 1.46,0.6 c -0.87,1.1 -1.34,3.1 -1.74,4.4 -0.78,2.8 -2.04,7.6 -2.08,10.4 1.49,0.2 6.65,0.2 7.95,-0.3 -1.85,-1.4 -4.13,-4.4 -3.78,-6.8 0.24,-1.4 1.34,-2 1.34,-3.3 0,-1.1 -0.91,-1.3 -1.34,-2.1 -0.39,-0.7 -0.35,-1.5 -0.35,-2.3 z m 43.42,1.5 c -0.5,-0.3 -1.4,-0.8 -2,-0.6 -1.3,0.2 -0.8,2.2 -0.4,2.9 0.8,1.3 2.7,2.6 4.2,3 0,0 0.4,-2 0.4,-2 z m -84.76,1.5 c -2.36,0.9 -6.34,4.4 -8.31,6.2 -0.83,0.8 -2.05,1.7 -2.24,2.9 -0.28,1.4 0.71,3 1.38,4.2 0,0 0.59,0 0.59,0 0,0 1.45,-3.3 1.45,-3.3 0,0 1.18,0.6 1.18,0.6 2.13,-3.3 1.03,-3.5 2.29,-5.3 1.41,-2.1 3.3,-2.6 3.66,-5.3 z m 27.44,5.9 c 1.97,-0.9 2.16,-1.6 2.99,-3.6 0.16,-0.5 0.55,-1.3 0,-1.8 -0.35,-0.6 -1.22,-0.5 -1.81,-0.5 0.2,1.4 -0.47,2.8 -2.05,3.1 -0.9,0 -1.49,-0.7 -2.63,0 -1.34,0.9 -3.94,4 -4.77,5.4 1.03,0.5 4.57,1.8 5.59,1.6 0.63,-0.1 2.88,-2.2 3.03,-2.8 0.16,-0.6 -0.1,-0.9 -0.35,-1.4 z m 71.82,-5.1 c -0.2,1.3 0.1,2 1.2,2.7 -0.2,-1.3 -0.3,-1.7 -1.2,-2.7 z m -15.4,4.5 c -1.3,-1.8 -2.8,-2.9 -5,-3.3 0,0 0.3,2.1 0.3,2.1 -2.1,-0.3 -2.1,-0.8 -4.12,0.3 0.82,1.8 4.52,5.5 6.22,7 0.7,0.7 1.2,1.6 2,2.2 0,0 0,-5.9 0,-5.9 0,0 -2.6,-3.9 -2.6,-3.9 2,1.4 2.3,3.2 4.7,1.2 z m 21.3,0.6 c -0.2,-0.8 -0.4,-2.5 -1.1,-3 -1.7,-1.3 -3.5,1.3 -2.8,3.3 0.4,1.1 1.7,2 2.7,2.6 -0.3,-1.7 -0.3,-1.9 1.2,-2.9 z M 12.41,107.4 c -2.01,1.4 -4.919,5.3 -6.336,7.4 -0.512,0.7 -1.654,2.4 -1.654,3.3 0,0.9 0.827,2 1.496,2.6 0,0 3.859,-5 3.859,-5 0,0 2.405,-3.3 2.405,-3.3 z m 65.87,0 c -1.62,0.8 -4.65,3.8 -5,5.6 -0.16,0.7 0.16,1.7 0.27,2.4 0,0 7.41,-1.2 7.41,-1.2 z m 46.12,1.8 c -0.3,-0.8 -0.4,-0.9 -1.2,-0.6 z m -65.61,-0.3 c -0.35,1 -0.24,1.2 0.59,1.8 0,0 -0.31,1.1 -0.31,1.1 -1.3,3.1 -3.47,0.3 -5.32,-0.6 -0.39,1.2 -0.39,1.7 0.43,2.7 1.66,2.1 4.3,1.5 6.7,1.5 0,0 0.86,-6.2 0.86,-6.2 -1.49,0.7 -1.53,0.5 -2.95,-0.3 z m 43.41,4.1 c -0.6,-1.1 -2.46,-3.8 -3.8,-4 -0.87,0 -2.48,0.9 -3.27,1.3 -0.83,0.4 -2.72,1.1 -2.72,2.2 0,0.7 1.85,3.5 2.29,4.4 0,0 5.7,10.9 5.7,10.9 2.2,-0.3 5.4,-2 7.4,-3 1.3,-0.7 2.1,-0.8 2.4,-2.3 0,0 -1.8,-0.6 -1.8,-0.6 -1.2,-0.3 -2.4,-0.3 -0.9,-1.8 0,0 -0.8,-2.4 -0.8,-2.4 0,0 -0.6,0 -0.6,0 0,0 -1.5,1.5 -1.5,1.5 -0.3,-1.1 -0.3,-1.3 -1.5,-1.5 0,-1.3 -0.1,-2.7 -1.6,-3.3 -0.5,-0.3 -1.1,-0.1 -1.88,-0.7 -0.91,-0.6 -1.5,-1.7 -1.81,-2.7 3.69,0.4 1.57,1.3 4.39,2 z m -62.9,2.4 c 1.81,0 2.95,-2.3 0.59,-2.7 z M 88.36,132 c 0,0 7.95,-2.2 7.95,-2.2 0.71,-0.2 2.56,-0.6 2.95,-1.3 0.36,-0.6 -0.1,-1.3 -0.35,-1.9 0,0 -2.68,-4.7 -2.68,-4.7 0,0 -3.7,-6.8 -3.7,-6.8 -0.67,-1.3 -1.06,-2.5 -2.72,-2.3 -1.37,0.2 -5.82,1.7 -7.08,2.3 0,0 1.73,5.3 1.73,5.3 0,0 1.3,4.2 1.3,4.2 z M 13,113.9 c -1.85,1 -4.013,4.2 -5.233,5.9 -0.433,0.7 -1.26,1.6 -1.26,2.4 0,1.1 2.283,4.4 3.228,5 0.435,-2.1 0.945,-3.6 2.245,-5.3 0.63,-0.9 2.4,-2.6 2.56,-3.6 0.1,-0.6 -1.22,-3.5 -1.54,-4.4 z m 36.03,1.5 c -1.93,-0.5 -5.4,-2.3 -6.93,-0.6 -1.18,1.3 -1.07,2.7 0,4 0.55,0.6 1.41,0.9 1.49,1.7 0,0.4 -1.02,4.3 0.71,4.2 1.14,0 0.71,-1.9 1.22,-2.8 0.67,-1.2 2.21,-1.3 2.96,-2.4 0.86,-1.3 0.1,-2.2 0.55,-4.1 z m 91.07,-1.5 c -0.5,1 -0.1,1.3 0.8,1.8 z m -52.96,18.3 c -0.36,-2.5 -2.96,-9.7 -3.9,-12.4 -0.39,-1 -1.06,-3.6 -2.05,-4.1 -0.63,-0.3 -1.93,0 -2.6,0 -1.97,0.3 -4.76,0.5 -6.49,1.2 0,0 1.41,12.4 1.41,12.4 0.1,0.9 0.16,3.9 0.83,4.4 0.59,0.5 2.6,0.1 3.35,0 z M 57.33,116.6 c 0,0 -2.67,0.3 -2.67,0.3 0,0 0,0.6 0,0.6 1.37,0.2 1.69,0.1 2.67,-0.9 z m 15.95,16.8 c 0,0 -1.46,-12.7 -1.46,-12.7 -0.35,-3.5 0,-4.4 -2.4,-4.4 0,0 -3.82,0.3 -3.82,0.3 0,0 -4.13,0 -4.13,0 -0.12,3.9 -1.46,3.6 0.86,6.2 0,0 -1.45,0.8 -1.45,0.8 3.82,-0.1 2.44,2.7 2.36,5.1 1.14,0.3 3.15,1 2.68,2.6 -0.12,0.5 -0.48,0.9 -0.95,1 -0.9,0.3 -3.94,-0.7 -5,-0.9 0,0 -0.27,2.9 -0.27,2.9 2.99,0.5 4.21,0.2 7.08,0 2.36,-0.1 4.14,0.1 6.5,-0.9 z M 135,116.3 c 0,0 -0.6,0 -0.6,0 -0.2,0.6 -0.5,1.3 -0.5,2 0.2,1.5 2.3,3.6 3.5,4.2 0.6,-2.4 -1.3,-4.2 -2.4,-6.2 z m -6.5,0.3 c -0.5,1.5 0.6,2.5 1.8,3.2 0,0 0.9,2.7 0.9,2.7 0,0 -6.5,-4 -6.5,-4 0,0 -2.7,-0.4 -2.7,-0.4 1.1,1.9 2,2.2 4.2,2.3 -0.2,1.3 0,1.2 0.3,2.4 1.1,3.4 1,2.6 3,5.6 0.6,0.8 1.5,2.4 2.3,2.8 0.9,0.3 1.8,-0.1 2.6,-0.5 -0.4,-1.2 -1.6,-2.5 -0.7,-3.7 0.9,-1.3 2.9,-1.4 3.1,-2.5 0.1,-0.8 -0.9,-2 -1.4,-2.6 -0.5,-0.7 -1.6,-2.4 -2.2,-2.7 -0.7,-0.5 -1.3,-0.2 -2,-0.6 z m -68.8,3.8 c 0.15,-0.6 0.51,-1.9 0.39,-2.6 0,-0.4 -0.39,-0.9 -0.83,-0.6 -0.63,0.5 0.16,2.6 0.44,3.2 z m 65,5.6 c 0.2,-1 0.3,-1.4 -0.3,-2.3 -1.2,-1.9 -2.6,-1.5 -4.2,-2 -1.4,-0.5 -1.1,-0.8 -2.9,-1 -0.4,3.1 -1.3,2.7 -1.4,3.9 0,0 0,1.7 0,1.7 0,0 0,2.1 0,2.1 0.1,1.6 1.4,3.4 2.6,4.4 0.7,-0.6 4.7,-4.2 5.3,-4.4 1.6,-0.7 2.6,2.7 2.9,3 0.7,0.8 1.9,0.2 2.7,0 -0.3,-1.3 -2.1,-4.4 -3.3,-5 -0.5,-0.2 -0.7,-0.1 -1.1,0 z m 18.6,2.4 c 0.6,-2.4 -1.2,-3.2 -3.2,-3.6 z m -31.9,-3.3 c -1.7,0.3 -5.6,2.2 -7.4,3.1 -0.6,0.3 -1.9,0.7 -2.1,1.4 -0.2,0.8 0.6,2.2 0.9,2.9 0,0 2.9,6.5 2.9,6.5 0,0 2.3,5.6 2.3,5.6 0.3,0.7 0.6,1.9 1.4,2.2 0.9,0.3 3.6,-0.8 4,-1.7 0.4,-0.5 0.1,-1.5 0,-2.2 0.2,-1.3 0.7,-1.9 0.9,-3 0.1,-0.6 0,-1.5 0.2,-2 0.6,-1.3 2.3,-0.8 3.1,-2.2 0.6,-1 0.1,-1.9 -0.6,-2.6 -0.5,0.9 -1.8,2.6 -2.8,2.8 -1,0.3 -1,-0.6 -3.4,0.5 -0.6,-1.8 -0.9,-1.6 -1.7,-3 0,0 -0.9,-2 -0.9,-2 -0.4,-0.9 -1.2,-1.8 -0.8,-2.7 0.7,-2.1 3.6,-1.1 4,-3.6 z m -48.48,1.8 c -2.32,0.2 -2.91,1.7 -2.95,3.8 1.58,-0.8 2.05,-2.3 2.95,-3.8 z m -3.54,1.5 c -3.46,-0.7 -4.57,-1.2 -7.4,1.5 0,0 3.86,-0.6 3.86,-0.6 -1.22,3.2 -1.14,4.3 2.36,5 z m 85.42,0 c -0.3,1.3 1.1,2.7 2,3.6 -0.2,-1.8 -0.6,-2.5 -2,-3.6 z m -44.6,1.2 c 0,0 -11.84,3.5 -11.84,3.5 0,0 3.34,12.7 3.34,12.7 0.24,1 0.91,4.6 1.54,5.1 0.75,0.7 2.2,0.2 3.07,0 0,0 8.29,-2.3 8.29,-2.3 0.8,-0.3 2.7,-0.7 2.8,-1.6 0.2,-0.9 -1.1,-3.8 -1.5,-4.7 -1.4,-3.6 -3.9,-9.4 -5.7,-12.7 z m -12.75,3.5 c 0,0 -8.86,1.5 -8.86,1.5 -0.71,0 -3.54,0.3 -3.93,0.6 -0.75,0.6 -0.12,3.8 0,4.7 0,0 1.57,13.9 1.57,13.9 0,0 15.95,-2.1 15.95,-2.1 0,-2.3 -0.87,-4.8 -1.42,-7.1 -0.63,-2.7 -2.17,-9.3 -3.31,-11.5 z m -33.7,3.6 c -0.16,-0.5 -0.27,-1.2 -0.75,-1.5 -0.78,-0.6 -3.42,0.2 -3.97,1 -0.4,0.6 -0.16,1.3 0,1.9 -1.11,0.1 -3.07,0.2 -3.9,1.1 -0.71,0.8 -1.06,2.9 -1.3,4 0,0 -1.58,9.1 -1.58,9.1 3.43,0.9 11.78,1.8 15.36,1.8 0,0 0.31,-10.9 0.31,-10.9 0,0 0.28,-4.5 0.28,-4.5 0,-0.6 0.12,-2.5 -0.28,-3 -0.47,-0.6 -2.75,-1.2 -3.58,1 z m 60.05,9.7 c 0,0 -4.5,1.5 -4.5,1.5 0.3,1.4 0.8,3.3 1.8,4.4 z m -18.36,14.5 c 0,0 7.06,-1.7 7.06,-1.7 0,0 5.3,-1.5 5.3,-1.5 0.8,-0.3 2.1,-0.5 2.6,-1.1 0.4,-0.6 0.2,-1.3 0,-1.9 -0.3,-1.2 -1.5,-5.3 -2.6,-5.7 -0.7,-0.3 -2.4,0.4 -3.2,0.6 0,0 -7.7,2.2 -7.7,2.2 -0.79,0.2 -2.72,0.4 -3.07,1.3 -0.28,0.6 0.1,1.8 0.24,2.5 0.39,1.7 0.7,3.6 1.37,5.3 z M 33.4,154.7 c -0.32,-3.5 -1.22,-4.1 -4.73,-4.4 1.1,1.5 3.15,3.3 4.73,4.4 z m 7.67,-1.5 c 0,0 -5.9,-1.2 -5.9,-1.2 0,0.8 0.27,3.9 0.59,4.4 0.55,1.1 3.31,3.2 4.41,3.9 z M 90.4,153 c 0,0 -10.03,1.5 -10.03,1.5 -0.87,0.1 -3.15,0.1 -3.63,0.6 -0.43,0.6 -0.27,1.3 -0.23,1.9 0.1,1.2 0.23,5.6 1.3,6 0,0 3.74,0 3.74,0 0,0 11.81,-1.8 11.81,-1.8 1.65,-0.5 0.86,-2.2 0.59,-3.6 -0.87,-4.1 -0.59,-4.9 -3.55,-4.6 z m -32.79,10.3 c 0,0 0,-5.7 0,-5.7 0,-0.6 0.12,-1.9 -0.47,-2.3 -0.44,-0.4 -1.89,-0.4 -2.48,-0.4 0,0 -7.68,-0.9 -7.68,-0.9 -0.98,-0.1 -3.82,-0.7 -4.57,-0.2 -0.43,0.4 -0.55,1.2 -0.59,1.8 -0.19,1.1 -0.79,4.9 0,5.7 0.55,0.5 2.32,0.7 3.07,0.9 0,0 5.32,0.6 5.32,0.6 z m 18.31,0 c 0,-2.1 -0.12,-4 -0.4,-6 -0.1,-0.5 -0.15,-1.6 -0.67,-2 -0.74,-0.6 -2.99,-0.2 -3.93,0 0,0 -9.77,0 -9.77,0 -0.67,0 -1.89,-0.1 -2.36,0.4 -0.35,0.5 -0.28,1.4 -0.24,1.9 0,1.1 -0.1,4.7 0.52,5.5 0.51,0.5 1.69,0.4 2.4,0.4 0,0 11.22,0 11.22,0 z m 34.88,-5.4 c 0,0 -6.8,1.7 -6.8,1.7 0,0 -5.33,1.4 -5.33,1.4 -0.55,0.1 -2.08,0.4 -2.48,0.8 -0.51,0.5 -0.23,1.4 -0.16,2 0,0 0.95,5.1 0.95,5.1 0.1,0.5 0.2,1.4 0.67,1.7 0.71,0.5 2.85,-0.1 3.65,-0.3 0,0 8.3,-2.1 8.3,-2.1 0.8,-0.3 2.5,-0.7 3,-1.5 0.3,-0.6 0.1,-1.3 0,-2 -0.4,-4.8 -2,-3.1 -1.8,-6.8 z m -32.52,15.7 c 2.68,0 5.35,-0.3 7.99,-0.7 0,0 7.09,-1.1 7.09,-1.1 0.71,0 2.2,-0.1 2.64,-0.8 0.47,-0.6 -0.4,-4.2 -0.6,-5.1 -0.19,-0.8 -0.39,-3 -1.06,-3.6 -0.79,-0.5 -3.27,0.2 -4.21,0.3 0,0 -7.72,1.2 -7.72,1.2 0,0 -4.33,0.5 -4.33,0.5 -0.71,0.4 -0.67,1.2 -0.63,1.9 z m -20.36,-2.1 c 0,0 0,-4.7 0,-4.7 0,-0.8 0,-1.5 -0.7,-1.9 -0.79,-0.5 -2.48,-0.4 -3.47,-0.5 0,0 -9.13,-1.1 -9.13,-1.1 0,0 4.13,3 4.13,3 z m 0.87,-6.8 c 0,0 0,5 0,5 0,2 -0.1,2.4 1.77,3.4 0.71,0.3 1.3,0.6 2.09,0.7 0,0 12.09,0 12.09,0 0.66,0.1 1.92,0.2 2.44,-0.4 0.35,-0.5 0.15,-1.5 0,-2.2 -0.1,-1.2 -0.32,-5.6 -0.95,-6.3 -0.86,-1 -4.88,-0.2 -6.22,-0.2 z m 53.21,4.1 c 0,0 -10.7,2.5 -10.7,2.5 -0.8,0.3 -3.06,0.6 -3.49,1.2 -0.28,0.6 -0.1,1.4 0,2 0,0 0.78,4.7 0.78,4.7 0.16,1 0.59,4.8 1.18,5.3 0.63,0.6 3.03,0.6 3.93,0.7 3.8,0.5 7.5,0.6 11.2,0.5 0.9,0 2.1,0 2.5,-1 0.2,-0.6 -0.3,-3.5 -0.5,-4.3 -0.2,-1.4 -1.1,-7.4 -1.7,-8.2 -0.3,-0.6 -0.9,-0.9 -1.3,-1.4 -0.9,-1 -0.4,-1.5 -1.9,-2 z m 28.3,0.1 c 0,0 -2.3,1.8 -2.3,1.8 -1.4,-1.4 -2.4,-1.4 -3.9,0 -0.5,0.5 -0.9,1 -1.1,1.7 -0.2,1.2 0.5,4.2 0.6,5.6 1.9,-0.5 3.7,-2 5.3,-3.1 0.6,-0.5 1.5,-1.1 1.9,-1.9 0.4,-1.1 -0.1,-3.1 -0.5,-4.1 z M 78,180.1 c 0,-1 0,-4.4 -0.78,-5 -0.56,-0.5 -3.15,-0.4 -3.94,-0.3 0,0 -3.54,0.2 -3.54,0.2 -1.07,-0.1 -3.86,-0.2 -4.73,0 3.54,1.9 9.1,3.8 12.99,5.1 z m 8.27,2.4 c 0,0 2.36,0.6 2.36,0.6 z m 2.68,0.6 c 0,0 3.23,0.8 3.23,0.8 -1.3,0.2 -2.13,-0.3 -3.23,-0.8 z m 5.9,1.1 c 0,0 0.28,0 0.28,0 0,0 -0.28,0.3 -0.28,0.3 z" />
  <path
     id="path61"
     style="fill:#ffffff;stroke:none;stroke-width:0.397068"
     d="m 83.16,35.97 c 0,0 -3.12,7.87 -3.12,7.87 -0.39,0.99 -1.24,3.36 -1.87,4.07 -0.53,0.6 -2.78,2.01 -3.57,2.54 0,0 -6.92,4.65 -6.92,4.65 -1.17,0.79 -6.3,4.33 -7.22,4.61 -0.55,0.17 -1.28,0.15 -1.87,0.15 0,0 -48.58,0 -48.58,0 -0.651,0 -1.529,0 -2.048,-0.27 -0.641,-0.38 -1.603,-1.96 -2.043,-2.62 0,0 -4.205,-6.04 -4.205,-6.04 -0.9605,-1.4 -2.1142,-2.44 -1.5773,-4.2 0,0 3.3393,-8.4 3.3393,-8.4 0,0 6.574,-16.27 6.574,-16.27 0,0 2.64,-6.56 2.64,-6.56 0.35,-0.95 1.16,-3.11 1.76,-3.82 0.51,-0.55 2.29,-1.65 3.03,-2.127 0,0 5.33,-3.543 5.33,-3.543 0,0 5.9,-3.898 5.9,-3.898 0.85,-0.551 2.28,-1.6531 3.2,-1.9287 0.64,-0.1969 1.44,-0.1575 2.12,-0.1575 0,0 48.58,0 48.58,0 0.63,0 1.52,-0.0787 2.09,0.2362 0.71,0.4331 1.63,1.929 2.11,2.638 0,0 3.8,5.512 3.8,5.512 0.6,0.905 2.01,2.638 2.05,3.658 0,0.83 -1.76,5 -2.16,6.07 0,0 -1.48,3.66 -1.48,3.66 -0.2,0.51 -0.53,1.51 -0.97,1.84 -0.48,0.33 -1.39,0.26 -1.95,0.26 0,0 -17.35,0 -17.35,0 0,0 1.89,-5.53 1.89,-5.53 0,0 2.64,-6.3 2.64,-6.3 -2.09,-0.47 -9.66,-0.23 -12.3,-0.23 0,0 -24.54,0 -24.54,0 -0.77,0 -1.7,-0.1 -2.33,0.39 -0.73,0.55 -1.12,1.93 -1.43,2.76 0,0 -2.05,4.96 -2.05,4.96 0,0 -7.13,17.86 -7.13,17.86 0,0 -3.89,9.97 -3.89,9.97 0,0 36.85,0 36.85,0 2.44,0 2.4,-0.14 3.64,-3.41 0,0 2.45,-6.04 2.45,-6.04 0.28,-0.68 0.6,-1.91 1.24,-2.32 0.56,-0.37 1.6,-0.3 2.28,-0.3 0,0 10.94,0 10.94,0 1.75,0 4.52,-0.19 6.15,0.26 z m 0,23.89 c 0,0 5.74,-14.7 5.74,-14.7 0,0 12.7,-31.51 12.7,-31.51 0,0 4,-9.963 4,-9.963 1.4,-3.5037 1,-3.6612 3.7,-3.6612 0,0 17.6,0 17.6,0 0,0 -5.7,14.1742 -5.7,14.1742 0,0 -12.8,31.74 -12.8,31.74 0,0 -4.1,9.98 -4.1,9.98 -1.5,3.73 -1.1,3.93 -3.7,3.94 z M 136.8,47.78 c 0,0 36.9,0 36.9,0 0.7,0 1.6,0.1 2.2,-0.42 0.6,-0.46 1,-1.77 1.4,-2.46 0,0 2.3,-6.04 2.3,-6.04 1.2,-2.72 0.8,-3.15 3.7,-3.15 0,0 14.6,0 14.6,0 0.6,0 1.8,-0.1 2.1,0.42 0.4,0.56 -0.4,2.12 -0.6,2.73 0,0 -3.4,8.39 -3.4,8.39 -0.8,1.34 -3.6,2.85 -5,3.77 0,0 -9.3,6.3 -9.3,6.3 -2.3,1.5 -3.1,2.53 -5.9,2.54 0,0 -48.6,0 -48.6,0 -0.6,0 -1.4,0.1 -1.9,-0.26 -0.7,-0.36 -1.7,-2.02 -2.1,-2.63 0,0 -3.8,-5.52 -3.8,-5.52 -0.5,-0.79 -2.1,-2.79 -2.2,-3.67 -0.1,-0.74 0.6,-2.16 0.9,-2.88 0,0 2.6,-6.3 2.6,-6.3 0,0 7.5,-18.65 7.5,-18.65 0,0 2.2,-5.24 2.2,-5.24 0.3,-0.94 0.8,-2.32 1.4,-3.07 0.7,-0.67 3.5,-2.402 4.4,-3.071 0,0 8.6,-5.669 8.6,-5.669 2.4,-1.614 3.3,-2.8742 6.5,-2.8742 0,0 48.8,0 48.8,0 0.6,0 1.4,-0.0787 1.9,0.2362 0.6,0.3543 1.6,1.811 2,2.362 0,0 4.1,6.063 4.1,6.063 0.6,0.788 1.9,2.523 1.9,3.383 0,0.67 -1.7,4.85 -2.1,5.79 0,0 -1.6,4.2 -1.6,4.2 -0.2,0.49 -0.5,1.26 -0.9,1.57 -0.5,0.33 -1.5,0.27 -2.2,0.27 0,0 -17.3,0 -17.3,0 0,0 4.6,-12.06 4.6,-12.06 0,0 -36.8,0 -36.8,0 0,0 -2,0.23 -2,0.23 0,0 -1.5,2.13 -1.5,2.13 0,0 -2.3,5.75 -2.3,5.75 z" />
</svg>
